PathFileType	4	(X/Y/Z)	s06c0102.trc
DataRate	CameraRate	NumFrames	NumMarkers	Units	OrigDataRate	OrigDataStartFrame	OrigNumFrames
200	200	4	48	mm	200	1500	2000
Frame#	Time	racr			lacr			c7			jug			rlel			rdr			llel			ldr			s2			lic			ric			lasi			rasi			rpsi			lpsi			rgt			lgt			rth1			rth2			rth3			rth4			rlfc			rmfc			rsh1			rsh2			rsh3			rsh4			rlmal			rcal			rtoe			rmt5			lth1			lth2			lth4			lth3			llfc			lmfc			llmal			lcal			lmt5			lsh1			lsh2			lsh3			lsh4			ltoe			SBIKE			LBIKE			RBIKE			
		X1	Y1	Z1	X2	Y2	Z2	X3	Y3	Z3	X4	Y4	Z4	X5	Y5	Z5	X6	Y6	Z6	X7	Y7	Z7	X8	Y8	Z8	X9	Y9	Z9	X10	Y10	Z10	X11	Y11	Z11	X12	Y12	Z12	X13	Y13	Z13	X14	Y14	Z14	X15	Y15	Z15	X16	Y16	Z16	X17	Y17	Z17	X18	Y18	Z18	X19	Y19	Z19	X20	Y20	Z20	X21	Y21	Z21	X22	Y22	Z22	X23	Y23	Z23	X24	Y24	Z24	X25	Y25	Z25	X26	Y26	Z26	X27	Y27	Z27	X28	Y28	Z28	X29	Y29	Z29	X30	Y30	Z30	X31	Y31	Z31	X32	Y32	Z32	X33	Y33	Z33	X34	Y34	Z34	X35	Y35	Z35	X36	Y36	Z36	X37	Y37	Z37	X38	Y38	Z38	X39	Y39	Z39	X40	Y40	Z40	X41	Y41	Z41	X42	Y42	Z42	X43	Y43	Z43	X44	Y44	Z44	X45	Y45	Z45	X46	Y46	Z46	X47	Y47	Z47	X48	Y48	Z48	
1500	7.5000	508.760651	1285.504831	-78.382945	530.979745	1264.528716	-367.387136	512.850045	1345.828665	-230.103207	483.391402	1182.643502	-220.561772	529.444408	1050.754044	43.705851	717.151659	923.910507	-50.911436	499.526337	1022.538658	-479.898265	705.938310	930.127499	-411.063005	-30.281656	1145.772827	-209.350387	123.055113	1125.853017	-392.932068	118.097160	1121.390202	-56.785784	141.843919	1081.518357	-351.651372	153.312831	1079.865569	-93.313622	2.617402	1187.153812	-187.828537	-6.255954	1182.486346	-247.532481	84.561258	1027.389698	-30.356266	101.641557	1088.763029	-410.906983	149.075269	906.361573	-7.389992	202.908524	832.696108	-10.951279	211.369833	746.949470	-22.722704	234.703367	847.462015	-25.059602	236.014066	642.457927	-36.119075	235.729696	618.736139	-147.635971	223.183792	522.704988	-13.994497	241.640736	438.941990	-32.456620	216.718815	355.697348	-40.433106	266.727927	442.665010	-64.691260	208.830225	278.805712	-50.453281	148.251992	280.922338	-99.981149	378.688563	126.122423	-96.850920	283.324461	157.307480	-28.684052	181.144794	1017.710480	-427.836422	268.207485	1009.918658	-425.510090	280.899776	1041.689166	-409.114640	341.253222	958.275741	-428.133815	420.407493	876.590395	-398.953448	421.574947	864.797613	-279.466089	157.056371	620.104066	-375.632326	84.264690	639.594936	-327.638977	200.489839	483.000213	-402.874463	359.646951	790.346006	-414.414483	312.250454	721.287541	-389.979560	234.478606	678.400133	-387.545703	331.646389	708.167396	-359.124959	270.008263	429.120640	-346.367636	-202.847912	867.006031	-214.591991	-48.771442	80.326630	-414.652632	-48.778448	80.112996	-17.123993	
1501	7.5050	508.957074	1285.784670	-78.402796	530.678226	1265.106517	-367.013869	512.537791	1346.040288	-229.421217	483.106099	1182.786497	-220.505601	529.993055	1051.060935	43.731896	717.565704	923.551634	-50.286774	498.741715	1022.656527	-478.326272	705.369305	930.722096	-410.135256	-30.380412	1147.375229	-207.749245	122.326958	1128.249519	-392.014385	119.232458	1126.396420	-51.800505	140.837275	1083.451199	-351.080962	153.443417	1080.449266	-92.275077	2.585888	1188.434257	-186.055395	-6.388584	1184.398849	-245.888745	84.313365	1027.965418	-29.945433	101.378729	1093.083000	-409.276344	147.254177	906.007683	-7.289091	199.800522	831.767594	-10.822628	206.993067	745.613789	-22.816728	232.612661	846.246020	-24.403703	230.151269	640.950320	-36.549254	229.596865	617.049194	-148.417564	217.420167	521.673801	-14.216909	235.595962	437.861860	-32.624195	210.489687	354.660035	-40.180803	259.762503	441.164510	-65.004062	201.479304	277.432141	-50.326663	141.045252	280.761842	-99.638146	368.410214	121.254518	-96.695107	273.788116	154.417110	-28.212304	181.024848	1023.260171	-426.124762	268.226812	1016.343737	-423.688102	280.439206	1048.114114	-406.695715	341.871864	965.536248	-426.377675	422.479884	884.898198	-396.860846	423.469398	872.359076	-277.468985	163.343323	623.141241	-375.498337	89.791306	640.396352	-327.585565	210.080513	486.913911	-403.001511	363.398823	797.777573	-412.902128	317.104415	727.744445	-389.051643	240.125342	683.453922	-387.130509	336.781816	714.672966	-358.417341	281.298587	435.222333	-346.325411	-202.855463	867.026708	-214.580678	-48.789065	80.370538	-414.630307	-48.797997	80.154218	-17.108829	
1502	7.5100	509.236560	1285.830798	-78.315343	530.383328	1265.630149	-366.561182	512.291009	1346.087033	-228.671600	482.794096	1182.963298	-220.424760	530.465735	1051.138338	43.796677	718.160248	923.217456	-49.632808	497.691701	1022.522424	-476.629181	704.648611	931.170152	-408.927244	-30.725754	1149.078047	-206.331267	121.710412	1130.622130	-391.080410	119.261418	1127.052401	-50.594747	139.901751	1085.348507	-350.499111	153.695768	1081.140609	-91.022438	2.507260	1189.919182	-184.637102	-6.765122	1186.156611	-244.278649	83.961112	1028.335109	-29.621005	101.271631	1097.253929	-407.734092	145.622884	905.674861	-7.244205	197.140936	830.496928	-10.673727	203.148391	744.548815	-22.934650	229.779784	844.615118	-25.050510	224.825975	639.968694	-37.235840	224.035828	615.594858	-149.535937	212.090157	520.846101	-14.541478	229.517151	436.932669	-33.068455	203.826241	353.832679	-40.323326	253.623224	439.936882	-65.445809	193.525155	276.423098	-50.384893	133.135478	280.573977	-99.733427	357.897758	117.324965	-96.455347	263.469171	151.643640	-28.819902	180.957657	1028.565822	-424.625277	268.244534	1022.368491	-421.846496	279.940833	1054.178399	-404.461949	342.264147	972.203062	-424.520121	424.081592	892.436961	-394.914164	424.940511	879.319001	-275.374072	169.626508	625.333158	-375.292425	95.049436	640.217814	-327.796513	219.790596	490.418399	-403.163524	366.747525	804.586512	-411.288991	321.745873	733.531287	-388.074665	245.597705	687.743533	-386.653618	341.813780	720.452650	-357.613854	292.364665	440.639388	-346.369778	-202.858057	867.014989	-214.580706	-48.803240	80.398475	-414.617774	-48.788854	80.150506	-17.111596	
1503	7.5150	509.590953	1285.610583	-78.035478	530.070079	1265.977010	-366.071662	512.147815	1346.078733	-227.857427	482.600346	1182.923055	-220.369683	530.963020	1051.026976	43.907612	718.695752	922.957153	-49.428044	496.522449	1022.221620	-474.634596	703.889067	931.511204	-407.949127	-31.081765	1150.743797	-204.985214	121.269155	1132.809187	-390.070867	118.683044	1126.696780	-49.262320	138.804288	1086.845979	-349.948434	153.464367	1081.503970	-90.263657	2.377834	1191.012059	-183.049112	-7.085632	1187.830740	-242.822674	83.548565	1028.532829	-29.319335	101.114899	1101.205376	-406.306314	144.307786	905.326501	-7.393873	195.334067	829.570793	-11.321180	200.045022	743.562256	-23.098634	227.539714	843.296340	-25.583800	220.436497	639.275293	-38.060618	219.257091	614.555067	-150.724784	207.335999	520.121783	-15.108925	223.449625	435.964806	-33.805972	196.619600	353.311167	-40.812651	247.463043	438.731845	-66.303294	184.667182	275.753229	-51.098088	124.584409	280.546450	-100.086377	346.997960	114.414489	-96.173874	253.050747	150.253120	-28.459104	180.942482	1033.633034	-423.447402	268.213163	1027.966336	-420.058835	279.570110	1059.629971	-402.117991	342.525511	978.152977	-422.393347	425.326462	899.359539	-392.952038	425.997086	885.984373	-272.700102	175.904924	626.546048	-375.069950	100.212984	638.948414	-327.630234	229.628989	493.284270	-403.167119	369.646415	810.690964	-409.614199	326.364251	738.382903	-387.210539	250.867445	691.179494	-386.095344	346.439938	725.484798	-356.776172	303.456386	445.736389	-346.756031	-202.880187	866.986357	-214.536906	-48.791284	80.421001	-414.631740	-48.802589	80.162155	-17.119633	
